<?xml version="1.0" encoding="utf-8"?>
<!-- Generator: Adobe Illustrator 21.0.2, SVG Export Plug-In . SVG Version: 6.00 Build 0)  -->
<svg version="1.1" id="Layer_1" xmlns="http://www.w3.org/2000/svg" xmlns:xlink="http://www.w3.org/1999/xlink" x="0px" y="0px"
	 viewBox="0 0 180 180" style="enable-background:new 0 0 180 180;" xml:space="preserve">
<style type="text/css">
	.st0{fill:#FFFFFF;}
</style>
<g>
	<path class="st0" d="M33.3,119c-4.4,0-8,3.6-8,8s3.6,8,8,8c3.1,0,5.8-1.8,7.1-4.3l-3,0c-1,1.4-2.4,2.3-4.1,2.3
		c-2.9,0-5.2-2.7-5.2-6h13.2C41.3,122.6,37.7,119,33.3,119z M28.4,125c0.7-2.3,2.6-4,4.9-4c2.3,0,4.2,1.7,4.9,4H28.4z M60.8,119.3
		h-2.5v2.1h2.5v8.4c0,1.8,0.3,3.2,1.2,4c0.7,0.8,1.8,1.2,3.2,1.2c1.2,0,2.1-0.2,2.6-0.4l-0.1-2.1c-0.4,0.1-0.9,0.2-1.7,0.2
		c-1.7,0-2.2-1.1-2.2-3v-8.3H68v-2.1h-4.3H60.8z M73.3,122.3h-0.1l-0.1-3h-2.6c0.1,1.4,0.1,3,0.1,4.8v10.6h3v-8.2
		c0-0.5,0.1-0.9,0.1-1.3c0.4-2.1,1.9-3.6,4-3.6c0.4,0,0.7,0,1,0.1V119c-0.3-0.1-0.5-0.1-0.8-0.1C75.9,119,74.1,120.3,73.3,122.3z
		 M51,119c-2.7,0-4.6,1.4-5.4,2.9h-0.1l-0.2-2.5h-2.6c0.1,1.3,0.1,2.6,0.1,4.2v11.2h3v-9.2c0-0.5,0.1-1,0.2-1.3c0.5-1.6,2-2.9,4-2.9
		c2.8,0,3.8,2.1,3.8,4.5v8.9h3v-9.2C56.8,120.2,53.3,119,51,119z M20.8,121.2c1.6,0,2.7,0.3,3.5,0.7l0.7-2.2
		c-0.8-0.4-2.4-0.8-4.1-0.8c-5.4,0-8.8,3.4-8.8,8.2c0,4.7,3.2,7.9,8.2,7.9c2.2,0,3.9-0.5,4.7-0.9l-0.5-2.1c-0.8,0.3-2,0.8-3.7,0.8
		c-3.3,0-5.7-2.2-5.7-5.8C15,123.8,17.1,121.2,20.8,121.2z M123.3,119.3h-2.5v2.1h2.5v8.4c0,1.8,0.3,3.2,1.2,4
		c0.7,0.8,1.8,1.2,3.2,1.2c1.2,0,2.1-0.2,2.6-0.4l-0.1-2.1c-0.4,0.1-0.9,0.2-1.7,0.2c-1.7,0-2.2-1.1-2.2-3v-8.3h4.3v-2.1h-4.3H123.3
		z M87.6,119c-4.5,0-8.1,3-8.1,8.2c0,4.9,3.4,7.9,7.9,7.9c4,0,8.2-2.5,8.2-8.2C95.5,122.2,92.3,119,87.6,119z M87.4,132.9
		c-2.9,0-5-2.5-5-5.9c0-2.9,1.5-6,5.1-6c3.5,0,4.9,3.3,4.9,5.9C92.4,130.4,90.3,132.9,87.4,132.9z M147.2,121.2
		c1.6,0,2.7,0.3,3.5,0.7l0.7-2.2c-0.8-0.4-2.4-0.8-4.1-0.8c-5.4,0-8.8,3.4-8.8,8.2c0,4.7,3.2,7.9,8.2,7.9c2.2,0,3.9-0.5,4.7-0.9
		l-0.5-2.1c-0.8,0.3-2,0.8-3.7,0.8c-3.3,0-5.7-2.2-5.7-5.8C141.4,123.8,143.5,121.2,147.2,121.2z M160.1,119c-4.5,0-8.1,3-8.1,8.2
		c0,4.9,3.4,7.9,7.9,7.9c4,0,8.2-2.5,8.2-8.2C168,122.2,164.8,119,160.1,119z M160,132.9c-2.9,0-5-2.5-5-5.9c0-2.9,1.5-6,5.1-6
		c3.5,0,4.9,3.3,4.9,5.9C164.9,130.4,162.8,132.9,160,132.9z M132.8,134.7h3v-15.4h-3V134.7z M119.1,122.7v-3.5h-3.4
		C117.1,120.1,118.3,121.3,119.1,122.7z M111.3,119.2c-4.3,0-7.9,3.5-7.9,7.9c0,4.3,3.5,7.9,7.9,7.9c2,0,3.7-0.7,5.1-1.9v1.5h2.8
		V127h0C119.1,122.7,115.6,119.2,111.3,119.2z M111.3,133c-2.8,0-5.1-2.6-5.1-5.9c0-3.3,2.3-5.9,5.1-5.9c2.8,0,5.1,2.6,5.1,5.9
		C116.4,130.3,114.1,133,111.3,133z"/>
	<path class="st0" d="M121.6,84.4L97.9,48.1c-2.5-0.6-5.2-1-7.9-1c-2.7,0-5.4,0.3-8,1L58.4,84.4c1,5.9,3.6,11.3,7.3,15.7l20.6-31.6
		h0c0.8-1.2,2.1-2,3.7-2c1.5,0,2.9,0.8,3.7,2h0l20.6,31.6C118,95.7,120.6,90.4,121.6,84.4z"/>
</g>
</svg>
